<svg xmlns="http://www.w3.org/2000/svg" xmlns:xlink="http://www.w3.org/1999/xlink" width="1980" zoomAndPan="magnify" viewBox="0 0 1485 599.999999" height="800" preserveAspectRatio="xMidYMid meet" version="1.0"><defs><g/><clipPath id="8ccbd0fc4d"><rect x="0" width="1450" y="0" height="430"/></clipPath></defs><g transform="matrix(1, 0, 0, 1, 24, 85)"><g clip-path="url(#8ccbd0fc4d)"><g fill="#740c08" fill-opacity="1"><g transform="translate(6.026837, 290.028302)"><g><path d="M 171.921875 -243.625 L 171.921875 -242.5 C 171.921875 -239.738281 171.359375 -237.921875 170.234375 -237.046875 C 169.109375 -236.171875 167.546875 -235.734375 165.546875 -235.734375 C 164.035156 -235.734375 162.53125 -235.796875 161.03125 -235.921875 C 159.53125 -236.046875 157.90625 -236.234375 156.15625 -236.484375 C 152.65625 -236.734375 148.523438 -236.921875 143.765625 -237.046875 C 139.015625 -237.171875 133.882812 -237.234375 128.375 -237.234375 C 118.113281 -237.234375 106.914062 -236.921875 94.78125 -236.296875 C 82.644531 -235.671875 71.070312 -234.359375 60.0625 -232.359375 C 56.050781 -217.835938 52.046875 -201.378906 48.046875 -182.984375 C 44.046875 -164.597656 40.664062 -145.769531 37.90625 -126.5 L 45.421875 -125 C 56.429688 -123.5 66.941406 -122.75 76.953125 -122.75 C 86.710938 -122.75 96.097656 -123.25 105.109375 -124.25 C 114.117188 -125.25 122.5 -126 130.25 -126.5 C 131.25 -126.5 132.125 -126.5625 132.875 -126.6875 C 133.632812 -126.8125 134.390625 -126.875 135.140625 -126.875 C 138.890625 -126.875 140.765625 -126.125 140.765625 -124.625 C 140.765625 -122.375 137.757812 -120 131.75 -117.5 C 128 -115.988281 121.429688 -114.359375 112.046875 -112.609375 C 102.660156 -110.859375 92.273438 -109.421875 80.890625 -108.296875 C 69.503906 -107.171875 58.929688 -106.609375 49.171875 -106.609375 C 46.671875 -106.609375 44.289062 -106.609375 42.03125 -106.609375 C 39.78125 -106.609375 37.65625 -106.734375 35.65625 -106.984375 C 35.15625 -100.472656 34.65625 -93.023438 34.15625 -84.640625 C 33.65625 -76.265625 33.40625 -67.695312 33.40625 -58.9375 C 33.40625 -45.164062 34.15625 -31.898438 35.65625 -19.140625 C 37.15625 -6.378906 39.910156 3.503906 43.921875 10.515625 L 42.796875 10.515625 C 36.785156 10.515625 31.835938 8.132812 27.953125 3.375 C 24.078125 -1.375 21.140625 -6.378906 19.140625 -11.640625 C 15.890625 -20.398438 13.640625 -31.285156 12.390625 -44.296875 C 11.140625 -57.304688 10.515625 -71.066406 10.515625 -85.578125 C 10.515625 -101.847656 11.140625 -118.363281 12.390625 -135.125 C 13.640625 -151.894531 15.203125 -167.472656 17.078125 -181.859375 C 18.953125 -196.253906 20.890625 -208.082031 22.890625 -217.34375 L 24.03125 -222.59375 C 22.019531 -221.84375 19.953125 -221.15625 17.828125 -220.53125 C 15.703125 -219.90625 13.765625 -219.46875 12.015625 -219.21875 L 10.515625 -219.21875 C 6.253906 -219.21875 4.125 -221.71875 4.125 -226.71875 C 4.125 -229.976562 5.0625 -233.421875 6.9375 -237.046875 C 8.820312 -240.679688 11.265625 -243.375 14.265625 -245.125 C 18.015625 -247.375 24.519531 -249.25 33.78125 -250.75 C 43.039062 -252.25 53.863281 -253.3125 66.25 -253.9375 C 78.632812 -254.5625 90.960938 -254.875 103.234375 -254.875 C 117.992188 -254.875 131.316406 -254.4375 143.203125 -253.5625 C 155.085938 -252.6875 162.910156 -251.375 166.671875 -249.625 C 167.171875 -249.375 168.171875 -248.75 169.671875 -247.75 C 171.171875 -246.75 171.921875 -245.375 171.921875 -243.625 Z M 171.921875 -243.625 "/></g></g></g><g fill="#740c08" fill-opacity="1"><g transform="translate(144.532788, 290.028302)"><g><path d="M 153.15625 -52.171875 L 153.15625 -50.671875 C 152.90625 -44.171875 151.273438 -36.789062 148.265625 -28.53125 C 145.265625 -20.269531 141.007812 -13.132812 135.5 -7.125 C 130 -1.125 123.492188 1.875 115.984375 1.875 C 108.234375 1.875 101.976562 -0.5625 97.21875 -5.4375 C 92.46875 -10.320312 88.773438 -16.578125 86.140625 -24.203125 C 83.515625 -31.835938 81.703125 -39.597656 80.703125 -47.484375 C 79.703125 -55.367188 79.203125 -62.3125 79.203125 -68.3125 C 76.203125 -57.050781 72.382812 -46.039062 67.75 -35.28125 C 63.125 -24.519531 58.054688 -15.695312 52.546875 -8.8125 C 47.046875 -1.9375 41.039062 1.5 34.53125 1.5 L 34.15625 1.5 C 28.15625 1.5 23.148438 -1.3125 19.140625 -6.9375 C 15.140625 -12.570312 12.132812 -20.019531 10.125 -29.28125 C 8.125 -38.539062 7.125 -48.550781 7.125 -59.3125 L 7.125 -63.0625 C 7.125 -73.070312 8 -84.144531 9.75 -96.28125 C 11.507812 -108.414062 14.640625 -119.988281 19.140625 -131 C 23.648438 -142.007812 29.84375 -151.082031 37.71875 -158.21875 C 45.601562 -165.351562 55.675781 -168.921875 67.9375 -168.921875 C 72.695312 -168.921875 77.015625 -167.851562 80.890625 -165.71875 C 84.773438 -163.59375 87.59375 -160.53125 89.34375 -156.53125 C 91.09375 -158.53125 93.46875 -160.15625 96.46875 -161.40625 C 99.46875 -162.65625 103.097656 -163.28125 107.359375 -163.28125 C 108.859375 -163.28125 110.546875 -163.15625 112.421875 -162.90625 C 114.296875 -162.65625 116.238281 -162.28125 118.25 -161.78125 C 116.738281 -156.03125 114.984375 -148.148438 112.984375 -138.140625 C 110.984375 -128.128906 109.296875 -117.179688 107.921875 -105.296875 C 106.546875 -93.410156 105.859375 -81.835938 105.859375 -70.578125 L 105.859375 -69.0625 C 105.859375 -64.3125 106.109375 -58.679688 106.609375 -52.171875 C 107.109375 -45.671875 107.984375 -39.289062 109.234375 -33.03125 C 110.484375 -26.78125 112.234375 -21.523438 114.484375 -17.265625 C 116.742188 -13.015625 119.625 -10.890625 123.125 -10.890625 L 123.5 -10.890625 C 125.5 -10.890625 127.6875 -11.890625 130.0625 -13.890625 C 132.445312 -15.890625 135.015625 -19.644531 137.765625 -25.15625 C 141.515625 -32.40625 145.015625 -41.785156 148.265625 -53.296875 C 148.773438 -55.554688 149.78125 -56.6875 151.28125 -56.6875 C 152.53125 -56.6875 153.15625 -55.179688 153.15625 -52.171875 Z M 87.09375 -153.15625 C 84.082031 -156.40625 80.703125 -158.03125 76.953125 -158.03125 C 71.441406 -158.03125 65.804688 -155.273438 60.046875 -149.765625 C 54.296875 -144.265625 49.796875 -138.007812 46.546875 -131 C 42.546875 -122.25 39.601562 -111.988281 37.71875 -100.21875 C 35.84375 -88.457031 34.90625 -77.195312 34.90625 -66.4375 C 34.90625 -63.6875 34.96875 -60.929688 35.09375 -58.171875 C 35.21875 -55.421875 35.40625 -52.796875 35.65625 -50.296875 C 36.15625 -42.785156 37.59375 -37.40625 39.96875 -34.15625 C 42.351562 -30.90625 44.796875 -29.28125 47.296875 -29.28125 C 51.296875 -29.28125 54.984375 -32.15625 58.359375 -37.90625 C 61.742188 -43.664062 64.8125 -50.675781 67.5625 -58.9375 C 70.320312 -67.195312 72.703125 -75.203125 74.703125 -82.953125 C 77.703125 -94.460938 79.703125 -106.160156 80.703125 -118.046875 C 81.703125 -129.941406 83.832031 -141.644531 87.09375 -153.15625 Z M 87.09375 -153.15625 "/></g></g></g><g fill="#740c08" fill-opacity="1"><g transform="translate(283.415091, 290.028302)"><g><path d="M 149.03125 -48.796875 L 149.03125 -47.296875 C 148.78125 -45.546875 148.273438 -43.226562 147.515625 -40.34375 C 146.765625 -37.46875 145.890625 -34.65625 144.890625 -31.90625 C 141.640625 -22.644531 136.820312 -14.695312 130.4375 -8.0625 C 124.0625 -1.4375 115.742188 1.875 105.484375 1.875 L 104.734375 1.875 C 97.972656 1.875 92.335938 -0.3125 87.828125 -4.6875 C 83.328125 -9.070312 80.453125 -14.765625 79.203125 -21.765625 C 78.703125 -24.523438 78.328125 -27.53125 78.078125 -30.78125 C 77.828125 -34.03125 77.703125 -37.410156 77.703125 -40.921875 C 77.703125 -48.921875 78.140625 -57.238281 79.015625 -65.875 C 79.890625 -74.507812 80.953125 -82.707031 82.203125 -90.46875 C 83.453125 -98.226562 84.453125 -104.609375 85.203125 -109.609375 C 85.960938 -114.109375 86.34375 -118.738281 86.34375 -123.5 C 86.34375 -127.75 85.898438 -131.5 85.015625 -134.75 C 84.140625 -138.007812 82.453125 -139.640625 79.953125 -139.640625 C 78.703125 -139.640625 77.078125 -138.890625 75.078125 -137.390625 C 73.078125 -135.890625 70.695312 -133.382812 67.9375 -129.875 C 63.1875 -123.625 58.242188 -114.425781 53.109375 -102.28125 C 47.984375 -90.144531 44.046875 -76.695312 41.296875 -61.9375 C 41.046875 -59.6875 40.671875 -56.054688 40.171875 -51.046875 C 39.671875 -46.046875 39.164062 -40.664062 38.65625 -34.90625 C 38.15625 -29.15625 37.65625 -24.023438 37.15625 -19.515625 C 36.65625 -15.015625 36.03125 -12.140625 35.28125 -10.890625 C 32.78125 -6.128906 29.585938 -2.875 25.703125 -1.125 C 21.828125 0.625 18.265625 1.5 15.015625 1.5 C 15.515625 -0.5 15.890625 -4.125 16.140625 -9.375 C 16.390625 -14.632812 16.640625 -20.894531 16.890625 -28.15625 C 17.390625 -34.15625 17.640625 -40.097656 17.640625 -45.984375 C 17.640625 -51.867188 17.640625 -57.8125 17.640625 -63.8125 C 17.640625 -77.320312 17.390625 -90.832031 16.890625 -104.34375 C 16.390625 -117.863281 15.640625 -131.253906 14.640625 -144.515625 C 14.390625 -148.773438 14.078125 -154.59375 13.703125 -161.96875 C 13.328125 -169.351562 13.140625 -177.425781 13.140625 -186.1875 C 13.140625 -196.945312 13.640625 -208.144531 14.640625 -219.78125 C 15.640625 -231.414062 17.515625 -242.175781 20.265625 -252.0625 C 23.023438 -261.945312 27.03125 -269.953125 32.28125 -276.078125 C 37.539062 -282.210938 44.296875 -285.28125 52.546875 -285.28125 C 61.804688 -285.28125 68.1875 -281.585938 71.6875 -274.203125 C 75.195312 -266.828125 76.953125 -257.882812 76.953125 -247.375 C 76.953125 -236.613281 75.757812 -225.160156 73.375 -213.015625 C 71 -200.878906 68.375 -189.929688 65.5 -180.171875 C 62.625 -170.421875 60.4375 -163.414062 58.9375 -159.15625 C 55.675781 -149.894531 51.984375 -140.507812 47.859375 -131 C 43.734375 -121.488281 39.539062 -112.484375 35.28125 -103.984375 L 36.40625 -75.828125 C 39.164062 -87.335938 42.734375 -98.535156 47.109375 -109.421875 C 51.484375 -120.304688 57.050781 -130.753906 63.8125 -140.765625 C 67.5625 -146.523438 72.253906 -152.21875 77.890625 -157.84375 C 83.523438 -163.476562 90.09375 -166.296875 97.59375 -166.296875 C 105.101562 -166.296875 110.109375 -163.789062 112.609375 -158.78125 C 115.109375 -153.78125 116.359375 -148.273438 116.359375 -142.265625 C 116.359375 -136.003906 115.734375 -130.375 114.484375 -125.375 C 114.234375 -123.375 113.484375 -119.492188 112.234375 -113.734375 C 110.984375 -107.984375 109.671875 -101.101562 108.296875 -93.09375 C 106.921875 -85.082031 105.734375 -76.757812 104.734375 -68.125 C 103.734375 -59.5 103.234375 -51.429688 103.234375 -43.921875 C 103.234375 -37.160156 103.859375 -31.03125 105.109375 -25.53125 C 107.359375 -16.769531 111.234375 -12.390625 116.734375 -12.390625 C 118.242188 -12.390625 120.25 -13.015625 122.75 -14.265625 C 128 -17.515625 132 -22.078125 134.75 -27.953125 C 137.507812 -33.835938 140.140625 -40.660156 142.640625 -48.421875 C 143.640625 -51.171875 145.015625 -52.546875 146.765625 -52.546875 C 148.273438 -52.546875 149.03125 -51.296875 149.03125 -48.796875 Z M 64.9375 -236.484375 L 64.9375 -240.234375 C 64.9375 -247.492188 64.1875 -253.5 62.6875 -258.25 C 61.1875 -263.007812 58.9375 -265.390625 55.9375 -265.390625 C 52.175781 -265.390625 48.796875 -260.070312 45.796875 -249.4375 C 42.796875 -238.800781 40.414062 -226.101562 38.65625 -211.34375 C 37.15625 -198.320312 36.15625 -185.367188 35.65625 -172.484375 C 35.15625 -159.597656 34.90625 -146.898438 34.90625 -134.390625 L 34.90625 -119.75 C 40.414062 -132.007812 45.421875 -144.957031 49.921875 -158.59375 C 54.429688 -172.226562 58.0625 -185.800781 60.8125 -199.3125 C 63.5625 -212.832031 64.9375 -225.222656 64.9375 -236.484375 Z M 64.9375 -236.484375 "/></g></g></g><g fill="#740c08" fill-opacity="1"><g transform="translate(418.168442, 290.028302)"><g><path d="M 153.15625 -52.171875 L 153.15625 -50.671875 C 152.90625 -44.171875 151.273438 -36.789062 148.265625 -28.53125 C 145.265625 -20.269531 141.007812 -13.132812 135.5 -7.125 C 130 -1.125 123.492188 1.875 115.984375 1.875 C 108.234375 1.875 101.976562 -0.5625 97.21875 -5.4375 C 92.46875 -10.320312 88.773438 -16.578125 86.140625 -24.203125 C 83.515625 -31.835938 81.703125 -39.597656 80.703125 -47.484375 C 79.703125 -55.367188 79.203125 -62.3125 79.203125 -68.3125 C 76.203125 -57.050781 72.382812 -46.039062 67.75 -35.28125 C 63.125 -24.519531 58.054688 -15.695312 52.546875 -8.8125 C 47.046875 -1.9375 41.039062 1.5 34.53125 1.5 L 34.15625 1.5 C 28.15625 1.5 23.148438 -1.3125 19.140625 -6.9375 C 15.140625 -12.570312 12.132812 -20.019531 10.125 -29.28125 C 8.125 -38.539062 7.125 -48.550781 7.125 -59.3125 L 7.125 -63.0625 C 7.125 -73.070312 8 -84.144531 9.75 -96.28125 C 11.507812 -108.414062 14.640625 -119.988281 19.140625 -131 C 23.648438 -142.007812 29.84375 -151.082031 37.71875 -158.21875 C 45.601562 -165.351562 55.675781 -168.921875 67.9375 -168.921875 C 72.695312 -168.921875 77.015625 -167.851562 80.890625 -165.71875 C 84.773438 -163.59375 87.59375 -160.53125 89.34375 -156.53125 C 91.09375 -158.53125 93.46875 -160.15625 96.46875 -161.40625 C 99.46875 -162.65625 103.097656 -163.28125 107.359375 -163.28125 C 108.859375 -163.28125 110.546875 -163.15625 112.421875 -162.90625 C 114.296875 -162.65625 116.238281 -162.28125 118.25 -161.78125 C 116.738281 -156.03125 114.984375 -148.148438 112.984375 -138.140625 C 110.984375 -128.128906 109.296875 -117.179688 107.921875 -105.296875 C 106.546875 -93.410156 105.859375 -81.835938 105.859375 -70.578125 L 105.859375 -69.0625 C 105.859375 -64.3125 106.109375 -58.679688 106.609375 -52.171875 C 107.109375 -45.671875 107.984375 -39.289062 109.234375 -33.03125 C 110.484375 -26.78125 112.234375 -21.523438 114.484375 -17.265625 C 116.742188 -13.015625 119.625 -10.890625 123.125 -10.890625 L 123.5 -10.890625 C 125.5 -10.890625 127.6875 -11.890625 130.0625 -13.890625 C 132.445312 -15.890625 135.015625 -19.644531 137.765625 -25.15625 C 141.515625 -32.40625 145.015625 -41.785156 148.265625 -53.296875 C 148.773438 -55.554688 149.78125 -56.6875 151.28125 -56.6875 C 152.53125 -56.6875 153.15625 -55.179688 153.15625 -52.171875 Z M 87.09375 -153.15625 C 84.082031 -156.40625 80.703125 -158.03125 76.953125 -158.03125 C 71.441406 -158.03125 65.804688 -155.273438 60.046875 -149.765625 C 54.296875 -144.265625 49.796875 -138.007812 46.546875 -131 C 42.546875 -122.25 39.601562 -111.988281 37.71875 -100.21875 C 35.84375 -88.457031 34.90625 -77.195312 34.90625 -66.4375 C 34.90625 -63.6875 34.96875 -60.929688 35.09375 -58.171875 C 35.21875 -55.421875 35.40625 -52.796875 35.65625 -50.296875 C 36.15625 -42.785156 37.59375 -37.40625 39.96875 -34.15625 C 42.351562 -30.90625 44.796875 -29.28125 47.296875 -29.28125 C 51.296875 -29.28125 54.984375 -32.15625 58.359375 -37.90625 C 61.742188 -43.664062 64.8125 -50.675781 67.5625 -58.9375 C 70.320312 -67.195312 72.703125 -75.203125 74.703125 -82.953125 C 77.703125 -94.460938 79.703125 -106.160156 80.703125 -118.046875 C 81.703125 -129.941406 83.832031 -141.644531 87.09375 -153.15625 Z M 87.09375 -153.15625 "/></g></g></g><g fill="#740c08" fill-opacity="1"><g transform="translate(557.050745, 290.028302)"><g><path d="M 153.15625 -52.171875 L 153.15625 -50.296875 C 152.65625 -43.546875 150.835938 -36.101562 147.703125 -27.96875 C 144.578125 -19.832031 140.320312 -12.820312 134.9375 -6.9375 C 129.5625 -1.0625 122.867188 1.875 114.859375 1.875 C 105.847656 1.875 99.03125 -1.875 94.40625 -9.375 C 89.78125 -16.882812 86.648438 -26.519531 85.015625 -38.28125 C 83.390625 -50.050781 82.578125 -62.316406 82.578125 -75.078125 C 79.328125 -63.316406 75.257812 -51.550781 70.375 -39.78125 C 65.5 -28.019531 59.992188 -18.257812 53.859375 -10.5 C 47.734375 -2.75 41.289062 1.25 34.53125 1.5 L 34.15625 1.5 C 28.15625 1.5 23.273438 -1.3125 19.515625 -6.9375 C 15.765625 -12.570312 13.015625 -20.019531 11.265625 -29.28125 C 9.515625 -38.539062 8.640625 -48.550781 8.640625 -59.3125 C 8.640625 -67.070312 9.265625 -75.828125 10.515625 -85.578125 C 11.765625 -95.335938 13.765625 -105.097656 16.515625 -114.859375 C 19.265625 -124.617188 23.078125 -133.566406 27.953125 -141.703125 C 32.835938 -149.835938 38.910156 -156.40625 46.171875 -161.40625 C 53.429688 -166.414062 62.066406 -168.921875 72.078125 -168.921875 C 77.828125 -168.921875 82.453125 -167.671875 85.953125 -165.171875 C 86.460938 -178.429688 87.09375 -191.191406 87.84375 -203.453125 C 88.59375 -215.710938 89.46875 -225.347656 90.46875 -232.359375 C 91.21875 -237.109375 92.28125 -242.484375 93.65625 -248.484375 C 95.03125 -254.492188 97.03125 -260.316406 99.65625 -265.953125 C 102.289062 -271.585938 105.546875 -276.28125 109.421875 -280.03125 C 113.296875 -283.78125 117.988281 -285.65625 123.5 -285.65625 C 130.507812 -285.65625 135.765625 -283.96875 139.265625 -280.59375 C 142.765625 -277.21875 145.203125 -272.960938 146.578125 -267.828125 C 147.960938 -262.703125 148.65625 -257.257812 148.65625 -251.5 C 148.65625 -248.25 148.523438 -244.929688 148.265625 -241.546875 C 148.015625 -238.171875 147.640625 -235.109375 147.140625 -232.359375 C 145.640625 -220.097656 142.757812 -206.582031 138.5 -191.8125 C 134.25 -177.050781 129.304688 -162.722656 123.671875 -148.828125 C 118.046875 -134.941406 112.609375 -122.992188 107.359375 -112.984375 C 107.109375 -111.234375 106.859375 -107.351562 106.609375 -101.34375 C 106.359375 -95.34375 106.234375 -88.335938 106.234375 -80.328125 C 106.234375 -72.816406 106.421875 -64.992188 106.796875 -56.859375 C 107.171875 -48.734375 107.984375 -41.226562 109.234375 -34.34375 C 110.484375 -27.46875 112.171875 -21.835938 114.296875 -17.453125 C 116.429688 -13.078125 119.25 -10.890625 122.75 -10.890625 C 126.25 -10.890625 129.375 -12.578125 132.125 -15.953125 C 134.882812 -19.328125 137.390625 -23.515625 139.640625 -28.515625 C 141.890625 -33.523438 143.703125 -38.34375 145.078125 -42.96875 C 146.453125 -47.601562 147.515625 -51.046875 148.265625 -53.296875 C 148.773438 -55.304688 149.78125 -56.3125 151.28125 -56.3125 C 152.53125 -56.3125 153.15625 -54.929688 153.15625 -52.171875 Z M 85.203125 -146.390625 L 85.578125 -156.90625 C 84.078125 -157.65625 82.328125 -158.03125 80.328125 -158.03125 C 74.828125 -158.03125 69.195312 -155.335938 63.4375 -149.953125 C 57.6875 -144.578125 53.054688 -138.257812 49.546875 -131 C 45.046875 -121.488281 41.726562 -110.351562 39.59375 -97.59375 C 37.46875 -84.832031 36.40625 -72.820312 36.40625 -61.5625 C 36.40625 -59.8125 36.40625 -57.929688 36.40625 -55.921875 C 36.40625 -53.921875 36.53125 -52.046875 36.78125 -50.296875 C 37.28125 -42.785156 38.53125 -37.40625 40.53125 -34.15625 C 42.539062 -30.90625 44.796875 -29.28125 47.296875 -29.28125 C 51.546875 -29.28125 55.546875 -32.34375 59.296875 -38.46875 C 63.054688 -44.601562 66.5 -52.050781 69.625 -60.8125 C 72.757812 -69.570312 75.328125 -77.828125 77.328125 -85.578125 C 80.078125 -95.585938 82.015625 -105.660156 83.140625 -115.796875 C 84.265625 -125.929688 84.953125 -136.128906 85.203125 -146.390625 Z M 134.765625 -252.625 C 134.515625 -256.125 133.757812 -259.1875 132.5 -261.8125 C 131.25 -264.445312 129.625 -265.765625 127.625 -265.765625 C 126.625 -265.765625 125.375 -264.953125 123.875 -263.328125 C 122.375 -261.703125 120.875 -258.757812 119.375 -254.5 C 118.625 -252.25 117.679688 -247.179688 116.546875 -239.296875 C 115.421875 -231.421875 114.296875 -222.164062 113.171875 -211.53125 C 112.046875 -200.894531 110.984375 -190.128906 109.984375 -179.234375 C 108.984375 -168.347656 108.171875 -158.585938 107.546875 -149.953125 C 106.921875 -141.328125 106.609375 -135.257812 106.609375 -131.75 L 106.609375 -129.5 C 111.359375 -139.757812 115.859375 -151.332031 120.109375 -164.21875 C 124.367188 -177.113281 127.9375 -190.316406 130.8125 -203.828125 C 133.695312 -217.335938 135.140625 -229.972656 135.140625 -241.734375 C 135.140625 -243.742188 135.140625 -245.625 135.140625 -247.375 C 135.140625 -249.125 135.015625 -250.875 134.765625 -252.625 Z M 134.765625 -252.625 "/></g></g></g><g fill="#740c08" fill-opacity="1"><g transform="translate(695.933047, 290.028302)"><g/></g></g><g fill="#740c08" fill-opacity="1"><g transform="translate(767.25097, 290.028302)"><g><path d="M 170.796875 -57.8125 C 169.296875 -39.789062 160.347656 -24.835938 143.953125 -12.953125 C 127.566406 -1.066406 104.484375 5 74.703125 5.25 L 73.578125 5.25 C 57.304688 5.25 43.789062 3.0625 33.03125 -1.3125 C 22.269531 -5.695312 14.320312 -11.453125 9.1875 -18.578125 C 4.0625 -25.710938 1.5 -33.160156 1.5 -40.921875 C 1.5 -48.171875 3.5 -55.113281 7.5 -61.75 C 11.507812 -68.382812 17.394531 -74.078125 25.15625 -78.828125 C 26.65625 -79.578125 28.03125 -79.953125 29.28125 -79.953125 C 31.53125 -79.953125 32.65625 -79.203125 32.65625 -77.703125 C 32.65625 -76.703125 32.03125 -75.703125 30.78125 -74.703125 C 29.78125 -73.703125 28.59375 -71.632812 27.21875 -68.5 C 25.84375 -65.375 25.03125 -62.8125 24.78125 -60.8125 C 24.53125 -59.8125 24.40625 -58.875 24.40625 -58 C 24.40625 -57.125 24.40625 -56.3125 24.40625 -55.5625 C 24.40625 -45.050781 27.59375 -36.289062 33.96875 -29.28125 C 40.351562 -22.269531 48.488281 -17.015625 58.375 -13.515625 C 68.257812 -10.015625 78.457031 -8.265625 88.96875 -8.265625 C 93.71875 -8.265625 98.40625 -8.578125 103.03125 -9.203125 C 107.664062 -9.828125 111.984375 -10.890625 115.984375 -12.390625 C 124.242188 -15.140625 130.6875 -19.265625 135.3125 -24.765625 C 139.945312 -30.273438 142.765625 -35.410156 143.765625 -40.171875 C 144.515625 -43.171875 144.890625 -46.046875 144.890625 -48.796875 C 144.890625 -56.804688 142.320312 -64.125 137.1875 -70.75 C 132.0625 -77.382812 125.429688 -83.703125 117.296875 -89.703125 C 109.171875 -95.710938 100.351562 -101.59375 90.84375 -107.34375 C 81.332031 -113.101562 72.132812 -119.113281 63.25 -125.375 C 54.363281 -131.632812 46.671875 -138.390625 40.171875 -145.640625 C 34.660156 -152.148438 30.53125 -159.03125 27.78125 -166.28125 C 25.03125 -173.539062 23.65625 -180.925781 23.65625 -188.4375 C 23.65625 -200.945312 27.21875 -212.894531 34.34375 -224.28125 C 41.476562 -235.664062 51.550781 -244.863281 64.5625 -251.875 C 78.070312 -258.882812 91.960938 -262.390625 106.234375 -262.390625 C 121.742188 -262.390625 134.691406 -258.257812 145.078125 -250 C 155.460938 -241.738281 160.65625 -228.722656 160.65625 -210.953125 C 160.65625 -208.203125 160.46875 -205.265625 160.09375 -202.140625 C 159.71875 -199.015625 159.28125 -195.695312 158.78125 -192.1875 C 157.78125 -185.9375 154.898438 -179.867188 150.140625 -173.984375 C 145.390625 -168.109375 140.140625 -165.171875 134.390625 -165.171875 L 133.640625 -165.171875 C 133.390625 -165.171875 132.945312 -165.171875 132.3125 -165.171875 C 131.6875 -165.171875 131.125 -165.296875 130.625 -165.546875 C 128.875 -166.296875 128 -167.296875 128 -168.546875 C 128 -169.796875 128.375 -171.296875 129.125 -173.046875 C 131.625 -179.054688 133.375 -185.125 134.375 -191.25 C 135.382812 -197.382812 136.140625 -203.578125 136.640625 -209.828125 C 136.890625 -211.085938 137.015625 -212.28125 137.015625 -213.40625 C 137.015625 -214.53125 137.015625 -215.59375 137.015625 -216.59375 C 137.015625 -229.101562 134.007812 -237.984375 128 -243.234375 C 122 -248.492188 114.992188 -251.125 106.984375 -251.125 C 96.972656 -251.125 88.085938 -248.367188 80.328125 -242.859375 C 72.566406 -237.359375 66.4375 -230.289062 61.9375 -221.65625 C 57.4375 -213.019531 55.1875 -203.945312 55.1875 -194.4375 C 55.1875 -188.9375 56.0625 -183.429688 57.8125 -177.921875 C 59.5625 -172.421875 62.4375 -167.414062 66.4375 -162.90625 C 72.695312 -155.65625 80.644531 -148.960938 90.28125 -142.828125 C 99.914062 -136.703125 108.988281 -130.882812 117.5 -125.375 C 130.007812 -117.613281 140.203125 -110.664062 148.078125 -104.53125 C 155.960938 -98.40625 161.78125 -92.210938 165.53125 -85.953125 C 169.289062 -79.703125 171.171875 -72.195312 171.171875 -63.4375 C 171.171875 -62.4375 171.109375 -61.5 170.984375 -60.625 C 170.859375 -59.75 170.796875 -58.8125 170.796875 -57.8125 Z M 170.796875 -57.8125 "/></g></g></g><g fill="#740c08" fill-opacity="1"><g transform="translate(947.047268, 290.028302)"><g><path d="M 81.453125 -50.671875 C 81.203125 -44.171875 79.578125 -36.789062 76.578125 -28.53125 C 73.578125 -20.269531 69.320312 -13.132812 63.8125 -7.125 C 58.3125 -1.125 51.804688 1.875 44.296875 1.875 C 36.785156 1.875 30.710938 -0.5 26.078125 -5.25 C 21.453125 -10.007812 17.953125 -16.015625 15.578125 -23.265625 C 13.203125 -30.523438 11.515625 -38.035156 10.515625 -45.796875 C 9.515625 -53.554688 9.015625 -60.4375 9.015625 -66.4375 L 9.015625 -72.078125 C 9.015625 -75.078125 9.203125 -80.703125 9.578125 -88.953125 C 9.953125 -97.210938 10.390625 -106.910156 10.890625 -118.046875 C 11.390625 -129.191406 12.140625 -140.519531 13.140625 -152.03125 L 1.5 -152.03125 C -0.5 -152.03125 -1.5 -153.28125 -1.5 -155.78125 C -1.5 -157.03125 -1.0625 -158.34375 -0.1875 -159.71875 C 0.6875 -161.09375 1.75 -161.78125 3 -161.78125 L 13.890625 -161.78125 C 14.890625 -173.539062 16.015625 -184.175781 17.265625 -193.6875 C 18.515625 -203.195312 20.015625 -209.957031 21.765625 -213.96875 C 23.023438 -216.71875 25.28125 -219.15625 28.53125 -221.28125 C 31.78125 -223.40625 36.160156 -224.46875 41.671875 -224.46875 C 43.171875 -224.46875 44.859375 -224.34375 46.734375 -224.09375 C 48.609375 -223.84375 50.421875 -223.46875 52.171875 -222.96875 C 50.921875 -218.71875 49.484375 -211.023438 47.859375 -199.890625 C 46.234375 -188.753906 44.796875 -176.050781 43.546875 -161.78125 L 73.578125 -161.78125 C 75.828125 -161.78125 76.953125 -160.40625 76.953125 -157.65625 C 76.953125 -156.40625 76.578125 -155.15625 75.828125 -153.90625 C 75.078125 -152.65625 73.953125 -152.03125 72.453125 -152.03125 L 42.421875 -152.03125 C 41.171875 -138.257812 40.101562 -124.054688 39.21875 -109.421875 C 38.34375 -94.785156 37.90625 -81.332031 37.90625 -69.0625 L 37.90625 -60.4375 C 37.90625 -53.925781 38.15625 -46.789062 38.65625 -39.03125 C 39.164062 -31.28125 40.421875 -24.648438 42.421875 -19.140625 C 44.421875 -13.640625 47.421875 -10.890625 51.421875 -10.890625 L 51.796875 -10.890625 C 53.804688 -10.890625 56 -11.890625 58.375 -13.890625 C 60.75 -15.890625 63.3125 -19.644531 66.0625 -25.15625 C 68.0625 -28.65625 69.875 -32.84375 71.5 -37.71875 C 73.132812 -42.601562 74.828125 -47.796875 76.578125 -53.296875 C 77.578125 -55.554688 78.578125 -56.6875 79.578125 -56.6875 C 80.828125 -56.6875 81.453125 -55.179688 81.453125 -52.171875 Z M 81.453125 -50.671875 "/></g></g></g><g fill="#740c08" fill-opacity="1"><g transform="translate(1014.611646, 290.028302)"><g><path d="M 137.015625 -51.046875 C 138.265625 -50.796875 138.890625 -49.796875 138.890625 -48.046875 C 138.890625 -47.296875 138.640625 -46.484375 138.140625 -45.609375 C 137.640625 -44.734375 136.890625 -44.296875 135.890625 -44.296875 C 132.878906 -44.046875 128.804688 -42.476562 123.671875 -39.59375 C 118.546875 -36.71875 113.859375 -33.46875 109.609375 -29.84375 C 105.359375 -26.21875 103.234375 -23.023438 103.234375 -20.265625 L 103.234375 -15.765625 C 103.234375 19.015625 99.664062 47.789062 92.53125 70.5625 C 85.394531 93.34375 75.882812 110.300781 64 121.4375 C 52.113281 132.570312 39.164062 138.140625 25.15625 138.140625 C 11.382812 138.140625 1.5625 134.695312 -4.3125 127.8125 C -10.195312 120.9375 -13.140625 112.367188 -13.140625 102.109375 C -13.140625 94.347656 -11.757812 86.085938 -9 77.328125 C -6.25 68.566406 -2.75 60.054688 1.5 51.796875 C 7.507812 40.535156 15.203125 30.148438 24.578125 20.640625 C 33.960938 11.128906 43.660156 2.6875 53.671875 -4.6875 C 63.679688 -12.070312 72.316406 -18.015625 79.578125 -22.515625 C 79.578125 -25.773438 79.453125 -31.09375 79.203125 -38.46875 C 78.953125 -45.851562 78.640625 -54.238281 78.265625 -63.625 C 77.890625 -73.007812 77.328125 -82.082031 76.578125 -90.84375 C 74.578125 -79.832031 71.757812 -68.945312 68.125 -58.1875 C 64.5 -47.425781 60.1875 -36.414062 55.1875 -25.15625 C 53.925781 -22.394531 51.921875 -18.890625 49.171875 -14.640625 C 46.421875 -10.390625 43.289062 -6.695312 39.78125 -3.5625 C 36.28125 -0.4375 32.53125 1.125 28.53125 1.125 C 25.53125 1.125 22.648438 -0.125 19.890625 -2.625 C 17.390625 -4.875 15.328125 -8.8125 13.703125 -14.4375 C 12.078125 -20.070312 10.828125 -26.519531 9.953125 -33.78125 C 9.078125 -41.039062 8.445312 -48.421875 8.0625 -55.921875 C 7.6875 -63.429688 7.5 -70.191406 7.5 -76.203125 C 7.5 -78.953125 7.5625 -81.390625 7.6875 -83.515625 C 7.820312 -85.648438 7.890625 -87.46875 7.890625 -88.96875 C 8.140625 -94.21875 8.453125 -100.472656 8.828125 -107.734375 C 9.203125 -114.992188 9.890625 -122.3125 10.890625 -129.6875 C 11.890625 -137.070312 13.390625 -143.394531 15.390625 -148.65625 C 19.140625 -158.15625 26.519531 -162.90625 37.53125 -162.90625 L 39.03125 -162.90625 C 40.039062 -162.90625 40.921875 -162.90625 41.671875 -162.90625 C 42.421875 -162.90625 43.296875 -162.78125 44.296875 -162.53125 C 46.296875 -162.03125 47.296875 -161.40625 47.296875 -160.65625 C 47.296875 -160.15625 47.171875 -159.78125 46.921875 -159.53125 C 44.421875 -153.53125 42.289062 -145.648438 40.53125 -135.890625 C 38.78125 -126.128906 37.40625 -115.742188 36.40625 -104.734375 C 35.40625 -93.722656 34.90625 -83.210938 34.90625 -73.203125 C 34.90625 -68.191406 35.03125 -63.429688 35.28125 -58.921875 C 35.53125 -54.421875 35.90625 -50.421875 36.40625 -46.921875 C 37.15625 -42.671875 38.15625 -38.789062 39.40625 -35.28125 C 40.664062 -31.78125 42.296875 -30.03125 44.296875 -30.03125 C 45.796875 -30.03125 47.671875 -31.53125 49.921875 -34.53125 C 54.929688 -41.539062 59.125 -49.863281 62.5 -59.5 C 65.875 -69.132812 68.5 -79.082031 70.375 -89.34375 C 72.257812 -99.601562 73.453125 -109.113281 73.953125 -117.875 C 74.203125 -123.375 74.453125 -129.125 74.703125 -135.125 C 74.953125 -141.132812 76.453125 -146.519531 79.203125 -151.28125 C 82.453125 -157.03125 86.453125 -160.53125 91.203125 -161.78125 C 95.960938 -163.03125 100.097656 -163.65625 103.609375 -163.65625 L 108.484375 -163.65625 C 112.234375 -163.65625 114.109375 -162.90625 114.109375 -161.40625 C 114.109375 -160.90625 113.609375 -160.15625 112.609375 -159.15625 C 110.109375 -156.90625 108.171875 -152.523438 106.796875 -146.015625 C 105.421875 -139.515625 104.484375 -131.820312 103.984375 -122.9375 C 103.484375 -114.050781 103.234375 -104.851562 103.234375 -95.34375 C 103.234375 -84.582031 103.359375 -74.257812 103.609375 -64.375 C 103.859375 -54.488281 103.984375 -46.796875 103.984375 -41.296875 L 103.984375 -37.15625 C 111.234375 -41.414062 117.546875 -44.859375 122.921875 -47.484375 C 128.304688 -50.109375 132.378906 -51.421875 135.140625 -51.421875 C 135.640625 -51.421875 136.015625 -51.359375 136.265625 -51.234375 C 136.515625 -51.109375 136.765625 -51.046875 137.015625 -51.046875 Z M 79.953125 -13.140625 C 75.953125 -10.890625 69.820312 -6.257812 61.5625 0.75 C 53.300781 7.757812 44.726562 16.457031 35.84375 26.84375 C 26.957031 37.226562 19.515625 49.050781 13.515625 62.3125 C 10.265625 69.570312 7.820312 76.640625 6.1875 83.515625 C 4.5625 90.398438 3.75 96.722656 3.75 102.484375 C 3.75 110.734375 5.25 117.421875 8.25 122.546875 C 11.257812 127.679688 15.515625 130.25 21.015625 130.25 L 22.140625 130.25 C 30.898438 130.25 38.34375 127.367188 44.46875 121.609375 C 50.601562 115.859375 55.734375 108.289062 59.859375 98.90625 C 63.992188 89.519531 67.375 79.320312 70 68.3125 C 72.632812 57.300781 74.640625 46.351562 76.015625 35.46875 C 77.390625 24.582031 78.328125 14.820312 78.828125 6.1875 C 79.328125 -2.4375 79.703125 -8.878906 79.953125 -13.140625 Z M 79.953125 -13.140625 "/></g></g></g><g fill="#740c08" fill-opacity="1"><g transform="translate(1138.855006, 290.028302)"><g><path d="M 88.59375 -48.046875 L 88.59375 -47.296875 C 88.59375 -45.546875 88.28125 -43.289062 87.65625 -40.53125 C 87.03125 -37.78125 86.210938 -35.03125 85.203125 -32.28125 C 82.203125 -23.019531 77.820312 -15.070312 72.0625 -8.4375 C 66.3125 -1.8125 58.179688 1.5 47.671875 1.5 C 38.660156 1.5 31.523438 -1.375 26.265625 -7.125 C 21.015625 -12.882812 17.140625 -19.832031 14.640625 -27.96875 C 12.140625 -36.101562 10.640625 -43.671875 10.140625 -50.671875 C 9.640625 -57.429688 9.265625 -64.625 9.015625 -72.25 C 8.765625 -79.882812 8.640625 -87.957031 8.640625 -96.46875 C 8.640625 -111.988281 9.078125 -128.003906 9.953125 -144.515625 C 10.828125 -161.035156 12.203125 -177.113281 14.078125 -192.75 C 15.953125 -208.394531 18.265625 -222.347656 21.015625 -234.609375 C 22.515625 -240.867188 24.890625 -248 28.140625 -256 C 31.398438 -264.007812 35.65625 -270.953125 40.90625 -276.828125 C 46.164062 -282.710938 52.425781 -285.65625 59.6875 -285.65625 C 68.195312 -285.65625 74.015625 -283.085938 77.140625 -277.953125 C 80.265625 -272.828125 81.828125 -266.890625 81.828125 -260.140625 C 81.828125 -246.617188 80.390625 -231.535156 77.515625 -214.890625 C 74.640625 -198.253906 69.445312 -179.800781 61.9375 -159.53125 C 58.1875 -149.019531 53.742188 -138.445312 48.609375 -127.8125 C 43.484375 -117.175781 38.414062 -107.476562 33.40625 -98.71875 C 33.15625 -96.71875 33.03125 -94.65625 33.03125 -92.53125 C 33.03125 -90.40625 33.03125 -88.34375 33.03125 -86.34375 C 33.03125 -77.832031 33.34375 -69.195312 33.96875 -60.4375 C 34.59375 -51.675781 35.71875 -43.601562 37.34375 -36.21875 C 38.976562 -28.84375 41.296875 -22.898438 44.296875 -18.390625 C 47.296875 -13.890625 51.175781 -11.640625 55.9375 -11.640625 C 61.4375 -11.640625 65.875 -13.953125 69.25 -18.578125 C 72.632812 -23.210938 75.203125 -27.65625 76.953125 -31.90625 C 77.953125 -34.15625 78.890625 -36.65625 79.765625 -39.40625 C 80.640625 -42.164062 81.578125 -45.046875 82.578125 -48.046875 C 83.578125 -50.796875 84.957031 -52.171875 86.71875 -52.171875 C 87.96875 -52.171875 88.59375 -50.796875 88.59375 -48.046875 Z M 33.78125 -114.859375 C 40.289062 -128.128906 46.296875 -142.207031 51.796875 -157.09375 C 57.304688 -171.976562 61.75 -186.675781 65.125 -201.1875 C 68.5 -215.707031 70.1875 -228.847656 70.1875 -240.609375 C 70.1875 -247.867188 69.625 -253.875 68.5 -258.625 C 67.375 -263.382812 65.3125 -265.765625 62.3125 -265.765625 C 59.5625 -265.765625 56.992188 -262.945312 54.609375 -257.3125 C 52.234375 -251.6875 50.046875 -244.242188 48.046875 -234.984375 C 46.046875 -225.722656 44.234375 -215.773438 42.609375 -205.140625 C 40.984375 -194.503906 39.601562 -183.992188 38.46875 -173.609375 C 37.34375 -163.222656 36.46875 -154.085938 35.84375 -146.203125 C 35.21875 -138.328125 34.78125 -132.632812 34.53125 -129.125 C 34.53125 -127.625 34.46875 -125.6875 34.34375 -123.3125 C 34.21875 -120.9375 34.03125 -118.117188 33.78125 -114.859375 Z M 33.78125 -114.859375 "/></g></g></g><g fill="#740c08" fill-opacity="1"><g transform="translate(1213.926554, 290.028302)"><g><path d="M 111.109375 -39.03125 C 107.109375 -25.269531 101.039062 -14.132812 92.90625 -5.625 C 84.769531 2.875 73.820312 7.125 60.0625 7.125 C 51.550781 7.125 44.101562 5 37.71875 0.75 C 31.34375 -3.5 26.023438 -8.753906 21.765625 -15.015625 C 18.265625 -20.265625 15.640625 -26.457031 13.890625 -33.59375 C 12.140625 -40.726562 11.015625 -48.175781 10.515625 -55.9375 L 10.515625 -62.6875 C 10.515625 -74.695312 11.828125 -86.769531 14.453125 -98.90625 C 17.078125 -111.039062 21.078125 -122.113281 26.453125 -132.125 C 31.835938 -142.132812 38.785156 -150.269531 47.296875 -156.53125 C 55.804688 -162.789062 66.066406 -165.921875 78.078125 -165.921875 L 80.703125 -165.921875 C 87.710938 -165.921875 92.78125 -163.289062 95.90625 -158.03125 C 99.03125 -152.78125 100.59375 -147.273438 100.59375 -141.515625 L 100.59375 -140.390625 C 100.59375 -127.128906 97.523438 -115.554688 91.390625 -105.671875 C 85.265625 -95.785156 77.570312 -87.773438 68.3125 -81.640625 C 59.050781 -75.515625 49.421875 -71.320312 39.421875 -69.0625 L 39.421875 -67.1875 C 39.421875 -56.925781 40.484375 -47.351562 42.609375 -38.46875 C 44.734375 -29.59375 48.234375 -22.460938 53.109375 -17.078125 C 57.992188 -11.703125 64.441406 -9.015625 72.453125 -9.015625 C 87.460938 -9.015625 98.597656 -21.523438 105.859375 -46.546875 C 106.609375 -49.546875 107.859375 -51.046875 109.609375 -51.046875 C 111.359375 -51.046875 112.234375 -49.421875 112.234375 -46.171875 C 112.234375 -44.421875 111.859375 -42.039062 111.109375 -39.03125 Z M 39.796875 -78.078125 L 39.796875 -77.703125 C 47.796875 -79.703125 54.796875 -83.640625 60.796875 -89.515625 C 66.804688 -95.398438 71.5 -102.347656 74.875 -110.359375 C 78.257812 -118.367188 79.953125 -126.503906 79.953125 -134.765625 L 79.953125 -136.640625 C 79.953125 -141.140625 79.265625 -145.390625 77.890625 -149.390625 C 76.515625 -153.398438 73.945312 -155.40625 70.1875 -155.40625 L 69.8125 -155.40625 C 65.3125 -155.40625 61.367188 -153.210938 57.984375 -148.828125 C 54.609375 -144.453125 51.796875 -138.882812 49.546875 -132.125 C 47.296875 -125.375 45.421875 -118.367188 43.921875 -111.109375 C 42.421875 -103.847656 41.359375 -97.210938 40.734375 -91.203125 C 40.109375 -85.203125 39.796875 -80.828125 39.796875 -78.078125 Z M 39.796875 -78.078125 "/></g></g></g><g fill="#740c08" fill-opacity="1"><g transform="translate(1312.645582, 290.028302)"><g><path d="M 132.5 -44.671875 C 129.75 -39.160156 124.742188 -34.65625 117.484375 -31.15625 C 110.234375 -27.65625 101.726562 -25.65625 91.96875 -25.15625 C 88.46875 -17.144531 83.023438 -10.257812 75.640625 -4.5 C 68.253906 1.25 58.429688 4.125 46.171875 4.125 C 34.910156 4.125 25.460938 1.4375 17.828125 -3.9375 C 10.191406 -9.320312 6.375 -18.894531 6.375 -32.65625 C 6.375 -33.15625 6.4375 -34.34375 6.5625 -36.21875 C 6.6875 -38.09375 6.875 -40.035156 7.125 -42.046875 C 5.625 -44.796875 4.875 -48.546875 4.875 -53.296875 C 4.875 -56.304688 5.375 -58.9375 6.375 -61.1875 C 7.382812 -63.4375 8.890625 -64.5625 10.890625 -64.5625 L 11.265625 -64.5625 C 12.015625 -64.5625 13.015625 -63.6875 14.265625 -61.9375 C 17.515625 -71.195312 20.515625 -80.769531 23.265625 -90.65625 C 26.023438 -100.539062 28.53125 -109.359375 30.78125 -117.109375 C 33.28125 -126.117188 36.46875 -135.816406 40.34375 -146.203125 C 44.226562 -156.585938 50.425781 -164.535156 58.9375 -170.046875 C 65.4375 -174.296875 72.441406 -176.421875 79.953125 -176.421875 C 80.453125 -176.421875 81.078125 -176.359375 81.828125 -176.234375 C 82.578125 -176.109375 83.203125 -176.046875 83.703125 -176.046875 C 85.710938 -175.796875 86.71875 -174.921875 86.71875 -173.421875 C 86.71875 -171.671875 85.835938 -170.796875 84.078125 -170.796875 C 81.328125 -170.546875 79.328125 -168.351562 78.078125 -164.21875 C 76.828125 -160.09375 76.203125 -155.40625 76.203125 -150.15625 C 76.203125 -148.894531 76.203125 -147.515625 76.203125 -146.015625 C 76.203125 -144.515625 76.328125 -143.140625 76.578125 -141.890625 C 77.578125 -133.628906 79.828125 -124.554688 83.328125 -114.671875 C 86.835938 -104.785156 90.15625 -94.898438 93.28125 -85.015625 C 96.40625 -75.128906 97.96875 -65.9375 97.96875 -57.4375 L 97.96875 -55.5625 C 97.96875 -52.300781 97.78125 -48.796875 97.40625 -45.046875 C 97.03125 -41.296875 96.21875 -37.664062 94.96875 -34.15625 C 98.46875 -34.40625 101.90625 -34.84375 105.28125 -35.46875 C 108.664062 -36.09375 111.734375 -36.90625 114.484375 -37.90625 C 117.992188 -39.414062 120.8125 -41.171875 122.9375 -43.171875 C 125.0625 -45.171875 126.875 -47.421875 128.375 -49.921875 C 128.875 -50.671875 129.5 -51.046875 130.25 -51.046875 C 132.257812 -51.046875 133.265625 -49.796875 133.265625 -47.296875 C 133.265625 -46.546875 133.007812 -45.671875 132.5 -44.671875 Z M 64.1875 -38.28125 C 64.6875 -41.039062 65.0625 -43.921875 65.3125 -46.921875 C 65.5625 -49.921875 65.6875 -52.925781 65.6875 -55.9375 C 65.6875 -60.6875 65.4375 -65.5 64.9375 -70.375 C 64.4375 -75.257812 63.8125 -80.078125 63.0625 -84.828125 C 61.3125 -96.597656 59.242188 -107.359375 56.859375 -117.109375 C 54.484375 -126.867188 53.296875 -135.628906 53.296875 -143.390625 C 53.296875 -147.398438 53.671875 -151.03125 54.421875 -154.28125 C 53.171875 -154.28125 51.796875 -152.398438 50.296875 -148.640625 C 48.796875 -144.890625 47.296875 -140.632812 45.796875 -135.875 C 44.296875 -131.125 43.046875 -126.875 42.046875 -123.125 C 39.035156 -112.363281 35.78125 -101.289062 32.28125 -89.90625 C 28.78125 -78.519531 25.023438 -67.320312 21.015625 -56.3125 C 23.773438 -54.550781 26.96875 -52.796875 30.59375 -51.046875 C 34.21875 -49.296875 37.785156 -47.671875 41.296875 -46.171875 C 44.546875 -44.671875 48.109375 -43.234375 51.984375 -41.859375 C 55.867188 -40.484375 59.9375 -39.289062 64.1875 -38.28125 Z M 61.1875 -26.28125 C 51.925781 -27.03125 43.226562 -28.21875 35.09375 -29.84375 C 26.957031 -31.46875 20.390625 -33.53125 15.390625 -36.03125 C 15.390625 -35.28125 15.328125 -34.53125 15.203125 -33.78125 C 15.078125 -33.03125 15.015625 -32.40625 15.015625 -31.90625 C 15.015625 -24.394531 16.953125 -18.640625 20.828125 -14.640625 C 24.710938 -10.640625 29.78125 -8.515625 36.03125 -8.265625 L 37.53125 -8.265625 C 42.039062 -8.515625 46.546875 -10.015625 51.046875 -12.765625 C 55.554688 -15.515625 58.8125 -19.644531 60.8125 -25.15625 C 60.8125 -25.40625 60.875 -25.59375 61 -25.71875 C 61.125 -25.84375 61.1875 -26.03125 61.1875 -26.28125 Z M 61.1875 -26.28125 "/></g></g></g></g></g></svg>